<svg xmlns="http://www.w3.org/2000/svg" width="100" height="48" viewBox="0 0 100 48">
    <g fill="none" fill-rule="evenodd">
        <g>
            <path fill="#EF0300" d="M94.324 13.291c-.36-1.253-1.072-2.641-2.278-3.847-1.345-1.344-3.794-2.947-7.83-2.947-1.964 0-3.953.4-5.795 1.138l.023-.085c.324-1.173.1-2.386-.618-3.328-.171-.226-.366-.427-.58-.604-.026-.77-.28-1.512-.755-2.135C75.774.541 74.665 0 73.447 0H67.6c-1.897 0-3.642 1.328-4.148 3.157l-1.36 4.913c-.936-.255-1.785-.386-2.525-.386-2.557 0-4.855.779-6.695 2.254-.033-.049-.07-.099-.106-.147-.716-.943-1.826-1.484-3.044-1.484h-5.875c-.982 0-1.948.358-2.721.992-.665-.524-1.49-.81-2.374-.81H34.59c-.301-1.337-.868-2.339-1.402-3.036l-.011-.015c-.315-1.181-.833-2.082-1.324-2.724C30.58 1.05 28.64.016 26.794.016L13.745 0c-1.9 0-3.653 1.354-4.16 3.183L.145 37.294c-.323 1.174-.098 2.387.618 3.33.173.226.368.427.58.605.028.77.282 1.511.756 2.133.705.927 1.788 1.463 2.98 1.482v.001c.35.007 8.589.175 10.588.175 3.489 0 6.94-1.647 9.59-4.546 1.057 2.07 2.99 3.551 5.534 4.21 3.273.85 7.369.287 10.955-1.504 1.459-.729 2.762-1.619 3.889-2.651.23.794.59 1.521 1.076 2.169 1.346 1.792 3.468 2.78 5.977 2.78 1.424 0 2.913-.379 4.429-1.116.568.317 1.214.484 1.886.484h5.853c1.898 0 3.643-1.328 4.149-3.158l.21-.761c.138.159.279.314.425.461 1.866 1.865 4.424 2.812 7.605 2.812 4.483 0 8.906-1.953 11.83-5.225 2.7-3.021 3.938-6.897 3.487-10.915-.11-.979-.57-1.852-1.337-2.75-.055-.479-.195-.933-.414-1.377h.295c1.336.064 2.612-.551 3.41-1.644.957-1.308 1.443-2.751 1.443-4.29 0-1.272-.447-3.062-1.634-4.708" transform="translate(2 1)"/>
            <path fill="#FFF" d="M92.297 18.904c-.861 1.178-2.111 1.213-2.474 1.196l-.013-.001h-4.303l1.182.972c2.063 1.696 3.289 2.956 3.448 4.373.417 3.703-.725 7.277-3.214 10.062-2.72 3.043-6.837 4.859-11.015 4.859-2.88 0-5.176-.837-6.83-2.49-.358-.36-.687-.763-.977-1.197l-.664-.998-.824 2.978c-.377 1.364-1.677 2.353-3.092 2.353h-5.854c-.563 0-1.1-.16-1.55-.464l-.268-.182-.29.149c-1.454.749-2.87 1.13-4.206 1.13-2.157 0-3.967-.832-5.101-2.343-.573-.762-.94-1.658-1.09-2.665L45 35.532l-.772.806c-1.192 1.24-2.64 2.292-4.306 3.124-3.356 1.676-7.166 2.208-10.191 1.423-2.511-.651-4.34-2.196-5.146-4.351l-.334-.891-.602.736c-2.504 3.055-5.9 4.807-9.317 4.807-1.933 0-9.772-.158-10.518-.174v-.001h-.007c-.872 0-1.663-.383-2.171-1.05-.508-.668-.666-1.534-.434-2.374L10.609 3.57c.009-.032.012-.042.013-.04.393-1.345 1.719-2.435 3.122-2.435l13.05.016c1.514 0 3.119.869 4.19 2.268.79 1.03 1.659 2.837 1.319 5.593l-.077.63c.656-.016.697-.018.709-.02h5.818c.77 0 1.475.296 1.983.83l.396.417.397-.414c.617-.644 1.462-1.013 2.32-1.013h5.875c.873 0 1.664.383 2.173 1.05.128.17.236.356.32.553l.308.709.567-.524c1.712-1.578 3.952-2.411 6.476-2.411.772 0 1.694.166 2.74.494l.542.17s1.51-5.548 1.647-6l.01.005c.379-1.364 1.68-2.353 3.095-2.353h5.845c.873 0 1.664.383 2.172 1.05.509.668.667 1.533.435 2.374l-1.962 7.094 1.304-1.012c2.463-1.912 5.677-3.01 8.82-3.01 3.66 0 5.857 1.429 7.056 2.627 1.663 1.664 2.255 3.696 2.255 5.042 0 1.3-.414 2.527-1.23 3.643" transform="translate(2 1)"/>
            <path fill="#6D271D" d="M73.447 3.104c.503 0 .805.396.671.88l-9.441 34.138c-.134.484-.655.881-1.157.881h-5.853c-.502 0-.804-.397-.67-.88l.357-1.292c-.445.41-3.165 2.804-6.002 2.804-3.104 0-5.022-2.306-3.969-5.933 1.054-3.628 3.999-14.457 4.703-16.968.702-2.512 2.735-5.946 7.482-5.946 1.544 0 3.782.998 4.607 1.393l2.269-8.197c.134-.484.654-.88 1.157-.88zm-23.723 8.307c.503 0 .803.396.67.88l-5.06 18.254c-2.83 10.213-21.662 12.4-18.967 1.246.884-3.655 5.399-19.32 5.399-19.32.138-.484.664-.879 1.166-.879h5.82c.504 0 .806.397.67.881l-2.18 7.87-.194.701-2.443 8.818c-.911 3.287 2.43 2.531 3.22-.013.332-1.07 1.245-4.34 2.192-7.775l.196-.712c1.244-4.516 2.482-9.07 2.482-9.07.132-.484.652-.88 1.154-.88zM14.375 3.104h.16l.565.001h.216l.468.001h.251l.531.001h.28l.582.002h.92l.637.002 1.631.002h.653l.962.002H23.155l.585.002h1.069l.69.002h1.296c1.46 0 4.61 1.918 3.232 7.03-.588 2.176-1.542 5.57-2.522 9.057l-.441 1.572c-1.177 4.188-2.317 8.265-2.834 10.288-1.012 3.96-5.244 8.112-9.9 8.112-1.912 0-9.851-.162-10.483-.175h-.04c-.503 0-.804-.396-.671-.881l9.448-34.137c.134-.485.654-.881 1.156-.881zm69.84 6.497c5.57 0 7.304 3.835 7.304 5.66 0 1.176-.508 1.999-.842 2.457-.33.449-.801.373-.801.373h-5.158s-.426.076-.55-.471c-.45-2.011-3.604-1.57-3.604.38 0 1.552 7.364 5.763 7.577 7.668.822 7.303-5.477 12.689-12.233 12.689-6.755 0-7.303-5.386-7.303-6.755 0-.945.449-2.102.704-2.737.179-.443.697-.458.697-.458h5.654c.073.005.51.051.54.456.285 3.768 4.456 2.985 4.456.183 0-2.008-7.507-6.311-7.67-7.394C71.802 13.709 78.647 9.6 84.217 9.6zm-22.022 9.744c.445-3.107-2.447-2.458-3.085-.16L55.921 30.69c-.468 1.688 2.102 2.225 3.247-.41zm-43.65-9.16l-5.797 20.96h2.638c.913 0 1.516-1.015 2.267-4.131.335-1.393 1.051-3.99 1.78-6.578l.207-.738c.831-2.944 1.632-5.726 1.85-6.536l.055-.19.056-.186c.44-1.421.944-2.596-3.056-2.601z" transform="translate(2 1)"/>
        </g>
    </g>
</svg>
